<svg xmlns="http://www.w3.org/2000/svg" xmlns:xlink="http://www.w3.org/1999/xlink" version="1.1" width="256" height="256" viewBox="0 0 256 256" xml:space="preserve">

<defs>
</defs>
<g style="stroke: none; stroke-width: 0; stroke-dasharray: none; stroke-linecap: butt; stroke-linejoin: miter; stroke-miterlimit: 10; fill: none; fill-rule: nonzero; opacity: 1;" transform="translate(1.4065934065934016 1.4065934065934016) scale(2.81 2.81)" >
	<path d="M 83.438 65.347 H 6.562 C 4.042 65.347 2 63.304 2 60.785 V 10.777 c 0 -2.519 2.042 -4.562 4.562 -4.562 h 76.877 c 2.519 0 4.562 2.042 4.562 4.562 v 50.008 C 88 63.304 85.958 65.347 83.438 65.347 z" style="stroke: none; stroke-width: 1; stroke-dasharray: none; stroke-linecap: butt; stroke-linejoin: miter; stroke-miterlimit: 10; fill: rgb(116,139,253); fill-rule: nonzero; opacity: 1;" transform=" matrix(1 0 0 1 0 0) " stroke-linecap="round" />
	<path d="M 67.54 85.784 H 22.46 v -2.342 c 0 -2.845 2.307 -5.152 5.152 -5.152 h 34.775 c 2.845 0 5.152 2.307 5.152 5.152 V 85.784 z" style="stroke: none; stroke-width: 1; stroke-dasharray: none; stroke-linecap: butt; stroke-linejoin: miter; stroke-miterlimit: 10; fill: rgb(231,236,237); fill-rule: nonzero; opacity: 1;" transform=" matrix(1 0 0 1 0 0) " stroke-linecap="round" />
	<path d="M 59.73 78.29 c -2.183 -3.954 -3.336 -8.406 -3.336 -12.943 H 33.606 c 0 4.537 -1.153 8.989 -3.336 12.943 H 59.73 z" style="stroke: none; stroke-width: 1; stroke-dasharray: none; stroke-linecap: butt; stroke-linejoin: miter; stroke-miterlimit: 10; fill: rgb(175,182,187); fill-rule: nonzero; opacity: 1;" transform=" matrix(1 0 0 1 0 0) " stroke-linecap="round" />
	<path d="M 83.438 4.216 H 6.562 C 2.943 4.216 0 7.159 0 10.777 v 50.008 c 0 3.618 2.943 6.562 6.562 6.562 h 76.877 c 3.618 0 6.562 -2.943 6.562 -6.562 V 10.777 C 90 7.159 87.057 4.216 83.438 4.216 z M 6.562 8.216 h 76.877 c 1.412 0 2.562 1.149 2.562 2.562 v 39.707 H 4 V 10.777 C 4 9.365 5.149 8.216 6.562 8.216 z" style="stroke: none; stroke-width: 1; stroke-dasharray: none; stroke-linecap: butt; stroke-linejoin: miter; stroke-miterlimit: 10; fill: rgb(231,236,237); fill-rule: nonzero; opacity: 1;" transform=" matrix(1 0 0 1 0 0) " stroke-linecap="round" />
	<path d="M 35.139 39.334 c -0.402 0 -0.803 -0.161 -1.099 -0.478 l -6.933 -7.448 c -0.536 -0.576 -0.536 -1.468 0 -2.044 l 6.933 -7.448 c 0.565 -0.606 1.513 -0.641 2.12 -0.076 c 0.606 0.564 0.641 1.514 0.076 2.12 l -5.982 6.426 l 5.982 6.426 c 0.564 0.606 0.53 1.556 -0.076 2.12 C 35.871 39.201 35.504 39.334 35.139 39.334 z" style="stroke: none; stroke-width: 1; stroke-dasharray: none; stroke-linecap: butt; stroke-linejoin: miter; stroke-miterlimit: 10; fill: rgb(255,255,255); fill-rule: nonzero; opacity: 1;" transform=" matrix(1 0 0 1 0 0) " stroke-linecap="round" />
	<path d="M 54.861 39.334 c -0.366 0 -0.733 -0.133 -1.022 -0.402 c -0.606 -0.564 -0.64 -1.513 -0.075 -2.12 l 5.981 -6.426 l -5.981 -6.426 c -0.564 -0.606 -0.531 -1.555 0.075 -2.12 c 0.605 -0.564 1.556 -0.531 2.12 0.076 l 6.934 7.448 c 0.536 0.576 0.536 1.468 0 2.044 l -6.934 7.448 C 55.664 39.173 55.263 39.334 54.861 39.334 z" style="stroke: none; stroke-width: 1; stroke-dasharray: none; stroke-linecap: butt; stroke-linejoin: miter; stroke-miterlimit: 10; fill: rgb(255,255,255); fill-rule: nonzero; opacity: 1;" transform=" matrix(1 0 0 1 0 0) " stroke-linecap="round" />
	<path d="M 41.653 41.66 c -0.161 0 -0.325 -0.026 -0.486 -0.082 c -0.784 -0.268 -1.202 -1.121 -0.933 -1.905 l 6.693 -19.545 c 0.268 -0.784 1.12 -1.202 1.905 -0.933 c 0.783 0.268 1.201 1.121 0.933 1.905 l -6.693 19.545 C 42.859 41.268 42.277 41.66 41.653 41.66 z" style="stroke: none; stroke-width: 1; stroke-dasharray: none; stroke-linecap: butt; stroke-linejoin: miter; stroke-miterlimit: 10; fill: rgb(255,255,255); fill-rule: nonzero; opacity: 1;" transform=" matrix(1 0 0 1 0 0) " stroke-linecap="round" />
</g>
</svg>