<svg xmlns="http://www.w3.org/2000/svg" xmlns:xlink="http://www.w3.org/1999/xlink" version="1.1" width="256" height="256" viewBox="0 0 256 256" xml:space="preserve">

<defs>
</defs>
<g style="stroke: none; stroke-width: 0; stroke-dasharray: none; stroke-linecap: butt; stroke-linejoin: miter; stroke-miterlimit: 10; fill: none; fill-rule: nonzero; opacity: 1;" transform="translate(1.4065934065934016 1.4065934065934016) scale(2.81 2.81)" >
	<circle cx="41.384" cy="42.504" r="41.384" style="stroke: none; stroke-width: 1; stroke-dasharray: none; stroke-linecap: butt; stroke-linejoin: miter; stroke-miterlimit: 10; fill: rgb(101,130,253); fill-rule: nonzero; opacity: 1;" transform="  matrix(1 0 0 1 0 0) "/>
	<path d="M 41.384 83.85 c -9.828 0 -17.526 -18.161 -17.526 -41.345 c 0 -23.184 7.698 -41.345 17.526 -41.345 S 58.91 19.321 58.91 42.505 C 58.91 65.688 51.212 83.85 41.384 83.85 z M 41.384 3.16 c -8.416 0 -15.526 18.018 -15.526 39.345 s 7.11 39.345 15.526 39.345 c 8.416 0 15.526 -18.018 15.526 -39.345 S 49.8 3.16 41.384 3.16 z" style="stroke: none; stroke-width: 1; stroke-dasharray: none; stroke-linecap: butt; stroke-linejoin: miter; stroke-miterlimit: 10; fill: rgb(77,98,188); fill-rule: nonzero; opacity: 1;" transform=" matrix(1 0 0 1 0 0) " stroke-linecap="round" />
	<path d="M 81.729 43.505 H 1.04 c -0.552 0 -1 -0.448 -1 -1 s 0.448 -1 1 -1 h 80.69 c 0.553 0 1 0.448 1 1 S 82.282 43.505 81.729 43.505 z" style="stroke: none; stroke-width: 1; stroke-dasharray: none; stroke-linecap: butt; stroke-linejoin: miter; stroke-miterlimit: 10; fill: rgb(77,98,188); fill-rule: nonzero; opacity: 1;" transform=" matrix(1 0 0 1 0 0) " stroke-linecap="round" />
	<circle cx="51.775999999999996" cy="50.656" r="21.496" style="stroke: none; stroke-width: 1; stroke-dasharray: none; stroke-linecap: butt; stroke-linejoin: miter; stroke-miterlimit: 10; fill: rgb(50,65,127); fill-rule: nonzero; opacity: 1;" transform="  matrix(1 0 0 1 0 0) "/>
	<circle cx="51.773" cy="50.653" r="18.103" style="stroke: none; stroke-width: 1; stroke-dasharray: none; stroke-linecap: butt; stroke-linejoin: miter; stroke-miterlimit: 10; fill: rgb(238,245,255); fill-rule: nonzero; opacity: 1;" transform="  matrix(1 0 0 1 0 0) "/>
	<path d="M 88.666 87.546 L 88.666 87.546 c -1.778 1.778 -4.662 1.778 -6.44 0 L 67.455 72.775 l 6.44 -6.44 l 14.771 14.771 C 90.445 82.884 90.445 85.767 88.666 87.546 z" style="stroke: none; stroke-width: 1; stroke-dasharray: none; stroke-linecap: butt; stroke-linejoin: miter; stroke-miterlimit: 10; fill: rgb(50,65,127); fill-rule: nonzero; opacity: 1;" transform=" matrix(1 0 0 1 0 0) " stroke-linecap="round" />
	<polyline points="65.17,67.44 70.02,72.28 73.4,68.9 68.56,64.05 " style="stroke: none; stroke-width: 1; stroke-dasharray: none; stroke-linecap: butt; stroke-linejoin: miter; stroke-miterlimit: 10; fill: rgb(50,65,127); fill-rule: nonzero; opacity: 1;" transform="  matrix(1 0 0 1 0 0) "/>
	<path d="M 42.061 61.369 c -0.256 0 -0.512 -0.098 -0.707 -0.293 c -2.784 -2.783 -4.317 -6.484 -4.317 -10.421 c 0 -3.938 1.533 -7.638 4.317 -10.421 c 0.391 -0.391 1.023 -0.391 1.414 0 s 0.391 1.023 0 1.414 c -2.406 2.406 -3.731 5.605 -3.731 9.007 s 1.325 6.601 3.731 9.007 c 0.391 0.391 0.391 1.023 0 1.414 C 42.573 61.271 42.317 61.369 42.061 61.369 z" style="stroke: none; stroke-width: 1; stroke-dasharray: none; stroke-linecap: butt; stroke-linejoin: miter; stroke-miterlimit: 10; fill: rgb(50,65,127); fill-rule: nonzero; opacity: 1;" transform=" matrix(1 0 0 1 0 0) " stroke-linecap="round" />
</g>
</svg>