<svg xmlns="http://www.w3.org/2000/svg" xmlns:xlink="http://www.w3.org/1999/xlink" version="1.1" width="256" height="256" viewBox="0 0 256 256" xml:space="preserve">

<defs>
</defs>
<g style="stroke: none; stroke-width: 0; stroke-dasharray: none; stroke-linecap: butt; stroke-linejoin: miter; stroke-miterlimit: 10; fill: none; fill-rule: nonzero; opacity: 1;" transform="translate(1.4065934065934016 1.4065934065934016) scale(2.81 2.81)" >
	<path d="M 33.717 8.769 V 0.816 c 0 -0.722 -0.87 -1.087 -1.385 -0.581 l -5.322 4.319 c -0.182 0.148 -0.443 0.148 -0.625 0 l -5.322 -4.319 c -0.515 -0.506 -1.385 -0.142 -1.385 0.581 v 7.953 C 24.452 10.589 29.113 10.232 33.717 8.769 z" style="stroke: none; stroke-width: 1; stroke-dasharray: none; stroke-linecap: butt; stroke-linejoin: miter; stroke-miterlimit: 10; fill: rgb(254,80,95); fill-rule: nonzero; opacity: 1;" transform=" matrix(1 0 0 1 0 0) " stroke-linecap="round" />
	<path d="M 15.346 8.769 c -1.832 0 -3.317 1.485 -3.317 3.317 v 74.596 c 0 1.832 1.485 3.317 3.317 3.317 h 49.986 c 3.696 -25.991 3.42 -53.149 0 -81.231 H 15.346 z" style="stroke: none; stroke-width: 1; stroke-dasharray: none; stroke-linecap: butt; stroke-linejoin: miter; stroke-miterlimit: 10; fill: rgb(194,31,52); fill-rule: nonzero; opacity: 1;" transform=" matrix(1 0 0 1 0 0) " stroke-linecap="round" />
	<path d="M 71.687 89.739 c 0.794 -0.336 1.43 -0.972 1.765 -1.765 C 73.117 88.768 72.481 89.404 71.687 89.739 z" style="stroke: none; stroke-width: 1; stroke-dasharray: none; stroke-linecap: butt; stroke-linejoin: miter; stroke-miterlimit: 10; fill: rgb(194,31,52); fill-rule: nonzero; opacity: 1;" transform=" matrix(1 0 0 1 0 0) " stroke-linecap="round" />
	<path d="M 70.396 8.769 h -5.064 V 90 h 5.064 c 1.832 0 3.317 -1.485 3.317 -3.317 V 57.396 v -16.61 V 12.087 C 73.714 10.255 72.228 8.769 70.396 8.769 z" style="stroke: none; stroke-width: 1; stroke-dasharray: none; stroke-linecap: butt; stroke-linejoin: miter; stroke-miterlimit: 10; fill: rgb(222,54,72); fill-rule: nonzero; opacity: 1;" transform=" matrix(1 0 0 1 0 0) " stroke-linecap="round" />
	<path d="M 76.316 40.786 H 61.927 c -4.587 0 -8.305 3.718 -8.305 8.305 c 0 4.587 3.718 8.305 8.305 8.305 h 14.388 c 0.915 0 1.656 -0.741 1.656 -1.656 V 42.442 C 77.971 41.527 77.23 40.786 76.316 40.786 z M 59.499 51.743 c -1.465 0 -2.652 -1.187 -2.652 -2.652 c 0 -1.465 1.187 -2.652 2.652 -2.652 c 1.465 0 2.652 1.187 2.652 2.652 C 62.15 50.555 60.963 51.743 59.499 51.743 z" style="stroke: none; stroke-width: 1; stroke-dasharray: none; stroke-linecap: butt; stroke-linejoin: miter; stroke-miterlimit: 10; fill: rgb(194,218,225); fill-rule: nonzero; opacity: 1;" transform=" matrix(1 0 0 1 0 0) " stroke-linecap="round" />
	<path d="M 45.24 55.232 L 33.108 29.216 c -0.693 -1.486 -2.466 -2.132 -3.954 -1.439 l -7.103 3.312 c -1.486 0.694 -2.131 2.468 -1.438 3.954 l 12.132 26.018 c 0.21 0.449 0.534 0.844 0.939 1.142 l 6.563 4.804 c 0.519 0.381 1.136 0.575 1.758 0.575 c 0.427 0 0.856 -0.092 1.256 -0.278 c 0.984 -0.459 1.64 -1.417 1.712 -2.5 l 0.539 -8.115 C 45.545 56.189 45.452 55.687 45.24 55.232 z M 30.39 30.484 l 1.433 3.074 l -7.077 3.3 l -1.426 -3.05 L 30.39 30.484 z M 42.02 64.586 l -6.556 -4.795 l -9.448 -20.216 l 7.075 -3.299 l 9.428 20.218 L 42.02 64.586 z" style="stroke: none; stroke-width: 1; stroke-dasharray: none; stroke-linecap: butt; stroke-linejoin: miter; stroke-miterlimit: 10; fill: rgb(255,205,56); fill-rule: nonzero; opacity: 1;" transform=" matrix(1 0 0 1 0 0) " stroke-linecap="round" />
</g>
</svg>