<svg xmlns="http://www.w3.org/2000/svg" xmlns:xlink="http://www.w3.org/1999/xlink" version="1.1" width="256" height="256" viewBox="0 0 256 256" xml:space="preserve">

<defs>
</defs>
<g style="stroke: none; stroke-width: 0; stroke-dasharray: none; stroke-linecap: butt; stroke-linejoin: miter; stroke-miterlimit: 10; fill: none; fill-rule: nonzero; opacity: 1;" transform="translate(1.4065934065934016 1.4065934065934016) scale(2.81 2.81)" >
	<path d="M 43.956 8.937 H 8.224 C 3.682 8.937 0 12.619 0 17.161 v 24.926 c 0 4.542 3.682 8.224 8.224 8.224 h 1.04 v 12.383 L 21.647 50.31 h 22.309 c 4.542 0 8.224 -3.682 8.224 -8.224 V 17.161 C 52.179 12.619 48.497 8.937 43.956 8.937 z" style="stroke: none; stroke-width: 1; stroke-dasharray: none; stroke-linecap: butt; stroke-linejoin: miter; stroke-miterlimit: 10; fill: rgb(255,198,0); fill-rule: nonzero; opacity: 1;" transform=" matrix(1 0 0 1 0 0) " stroke-linecap="round" />
	<path d="M 41.063 21.642 H 11.021 c -1.104 0 -2 -0.896 -2 -2 s 0.896 -2 2 -2 h 30.041 c 1.104 0 2 0.896 2 2 S 42.167 21.642 41.063 21.642 z" style="stroke: none; stroke-width: 1; stroke-dasharray: none; stroke-linecap: butt; stroke-linejoin: miter; stroke-miterlimit: 10; fill: rgb(255,255,255); fill-rule: nonzero; opacity: 1;" transform=" matrix(1 0 0 1 0 0) " stroke-linecap="round" />
	<path d="M 25.767 21.642 c -1.104 0 -2 -0.896 -2 -2 v -4.005 c 0 -1.104 0.896 -2 2 -2 s 2 0.896 2 2 v 4.005 C 27.767 20.746 26.871 21.642 25.767 21.642 z" style="stroke: none; stroke-width: 1; stroke-dasharray: none; stroke-linecap: butt; stroke-linejoin: miter; stroke-miterlimit: 10; fill: rgb(255,255,255); fill-rule: nonzero; opacity: 1;" transform=" matrix(1 0 0 1 0 0) " stroke-linecap="round" />
	<path d="M 15.108 43.949 c -0.583 0 -1.16 -0.253 -1.555 -0.741 c -0.695 -0.858 -0.563 -2.118 0.295 -2.813 C 19.77 35.6 26.608 25.99 29.093 18.974 c 0.369 -1.042 1.512 -1.584 2.553 -1.218 c 1.042 0.369 1.586 1.512 1.218 2.553 c -2.738 7.732 -9.985 17.92 -16.498 23.194 C 15.996 43.803 15.551 43.949 15.108 43.949 z" style="stroke: none; stroke-width: 1; stroke-dasharray: none; stroke-linecap: butt; stroke-linejoin: miter; stroke-miterlimit: 10; fill: rgb(255,255,255); fill-rule: nonzero; opacity: 1;" transform=" matrix(1 0 0 1 0 0) " stroke-linecap="round" />
	<path d="M 28.676 39.773 c -0.425 0 -0.854 -0.135 -1.217 -0.414 c -4.429 -3.402 -8.049 -7.722 -10.47 -12.492 c -0.5 -0.985 -0.107 -2.189 0.878 -2.688 c 0.983 -0.501 2.188 -0.108 2.688 0.878 c 2.153 4.241 5.382 8.089 9.34 11.13 c 0.876 0.673 1.041 1.928 0.368 2.804 C 29.87 39.504 29.276 39.773 28.676 39.773 z" style="stroke: none; stroke-width: 1; stroke-dasharray: none; stroke-linecap: butt; stroke-linejoin: miter; stroke-miterlimit: 10; fill: rgb(255,255,255); fill-rule: nonzero; opacity: 1;" transform=" matrix(1 0 0 1 0 0) " stroke-linecap="round" />
	<path d="M 46.044 27.307 h 35.732 c 4.542 0 8.224 3.682 8.224 8.224 v 24.926 c 0 4.542 -3.682 8.224 -8.224 8.224 h -1.04 v 12.383 L 68.353 68.68 H 46.044 c -4.542 0 -8.224 -3.682 -8.224 -8.224 V 35.531 C 37.821 30.989 41.503 27.307 46.044 27.307 z" style="stroke: none; stroke-width: 1; stroke-dasharray: none; stroke-linecap: butt; stroke-linejoin: miter; stroke-miterlimit: 10; fill: rgb(0,176,246); fill-rule: nonzero; opacity: 1;" transform=" matrix(1 0 0 1 0 0) " stroke-linecap="round" />
	<path d="M 71.782 62.301 c -1.104 0 -2 -0.896 -2 -2 V 42.238 c 0 -3.238 -2.634 -5.872 -5.872 -5.872 c -3.237 0 -5.871 2.634 -5.871 5.872 v 18.063 c 0 1.104 -0.896 2 -2 2 s -2 -0.896 -2 -2 V 42.238 c 0 -5.443 4.428 -9.872 9.871 -9.872 s 9.872 4.428 9.872 9.872 v 18.063 C 73.782 61.405 72.887 62.301 71.782 62.301 z" style="stroke: none; stroke-width: 1; stroke-dasharray: none; stroke-linecap: butt; stroke-linejoin: miter; stroke-miterlimit: 10; fill: rgb(255,255,255); fill-rule: nonzero; opacity: 1;" transform=" matrix(1 0 0 1 0 0) " stroke-linecap="round" />
	<path d="M 71.782 50.154 H 56.039 c -1.104 0 -2 -0.896 -2 -2 s 0.896 -2 2 -2 h 15.743 c 1.104 0 2 0.896 2 2 S 72.887 50.154 71.782 50.154 z" style="stroke: none; stroke-width: 1; stroke-dasharray: none; stroke-linecap: butt; stroke-linejoin: miter; stroke-miterlimit: 10; fill: rgb(255,255,255); fill-rule: nonzero; opacity: 1;" transform=" matrix(1 0 0 1 0 0) " stroke-linecap="round" />
</g>
</svg>